# xmcd
#
# Track frame offsets:
#	150
#	15195
#	31276
#	45163
#	59845
#	77737
#	98562
#	115692
#	127962
#	143421
#	160795
#	175542
#
# Disc length: 2693 seconds
#
# Revision: 1
# Processed by: cddbd v1.4PL0 Copyright (c) Steve Scherf et al.
# Submitted via: EasyCDDAExtractor 5.1.0
#
DISCID=7e0a830c
DTITLE=Famous Unknowns - New Project
DYEAR=1900
DGENRE=
TTITLE0=I Dunno
TTITLE1=It's All Over Now
TTITLE2=Runnin' Out
TTITLE3=Walkin' The Dog
TTITLE4=Ooh La La
TTITLE5=My Fault
TTITLE6=I'm Eighteen
TTITLE7=Route 66
TTITLE8=Suspicious Minds
TTITLE9=It Comes To Me Naturally
TTITLE10=Matchbox
TTITLE11=Let It Bleed
EXTD=
EXTT0=
EXTT1=
EXTT2=
EXTT3=
EXTT4=
EXTT5=
EXTT6=
EXTT7=
EXTT8=
EXTT9=
EXTT10=
EXTT11=
PLAYORDER=
